name C:\Users\u0101727\Documents\MyRepositories\upper-imu-dc\Results\main_tracking\Case_28\kinematics.mot
datacolumns 10
datarows 21
range 1.500000 2.000000
endheader 
time	clav_prot	clav_elev	scapula_abduction	scapula_elevation	scapula_upward_rot	scapula_winging	plane_elv	shoulder_elv	axial_rot	
          1.50000000	        -22.89558873	          0.61282908	          0.80290808	         -4.98758147	         35.43791041	         -1.53034472	         68.18615696	         53.66494879	        -23.24090663	
          1.52500000	        -23.43789385	          1.21676476	          0.65888668	         -4.93858340	         36.56295390	         -1.85597443	         68.06766518	         55.13644074	        -22.51564735	
          1.55000000	        -23.71855502	          1.58860136	          0.83718207	         -4.83554634	         37.56122255	         -2.15993650	         68.05240532	         56.35110588	        -21.89946127	
          1.57500000	        -23.89059929	          1.95750155	          1.12547016	         -4.70805005	         38.44899210	         -2.43668680	         68.11590840	         57.37071105	        -21.52703946	
          1.60000000	        -24.02243470	          2.31394815	          1.43570783	         -4.57379813	         39.26569638	         -2.69119876	         68.21808771	         58.26584534	        -21.44500736	
          1.62500000	        -24.14929176	          2.66321214	          1.73030878	         -4.43643011	         40.04514433	         -2.93215748	         68.33193450	         59.09844408	        -21.59982540	
          1.65000000	        -24.29208372	          3.02464033	          1.98637341	         -4.28703271	         40.81239321	         -3.17022563	         68.44903204	         59.91816972	        -21.91398701	
          1.67500000	        -24.46734554	          3.41926763	          2.18113469	         -4.11381373	         41.58343438	         -3.41441615	         68.57679180	         60.76533344	        -22.33647177	
          1.70000000	        -24.69593129	          3.85486063	          2.28733930	         -3.91445712	         42.37348185	         -3.67006943	         68.73331090	         61.66327871	        -22.77538420	
          1.72500000	        -25.00144026	          4.32087820	          2.28278578	         -3.70027424	         43.20333533	         -3.93945631	         68.93183144	         62.61287764	        -23.06881581	
          1.75000000	        -25.40008947	          4.79845177	          2.16411102	         -3.48802062	         44.09728464	         -4.22431456	         69.16294064	         63.59923898	        -23.07239802	
          1.77500000	        -25.89350065	          5.27455775	          1.95011930	         -3.28848644	         45.07628299	         -4.52753411	         69.39295443	         64.60113398	        -22.68870209	
          1.80000000	        -26.46765673	          5.74495424	          1.67485367	         -3.10339197	         46.14856765	         -4.85094085	         69.56878141	         65.60023322	        -21.90395874	
          1.82500000	        -27.09777573	          6.20686901	          1.37466269	         -2.93044446	         47.30246348	         -5.19161516	         69.62816057	         66.58858973	        -20.86348023	
          1.85000000	        -27.75512562	          6.65658367	          1.07710763	         -2.76616684	         48.50743863	         -5.54178952	         69.52378147	         67.56649175	        -19.82426711	
          1.87500000	        -28.41142301	          7.09433611	          0.79812045	         -2.60413406	         49.72243505	         -5.89190978	         69.24670277	         68.53038569	        -19.02804389	
          1.90000000	        -29.03919029	          7.52486186	          0.54722325	         -2.43564569	         50.90327034	         -6.23216306	         68.83394636	         69.46003184	        -18.60094176	
          1.92500000	        -29.60882596	          7.95031253	          0.33583066	         -2.25464121	         52.00356642	         -6.55083118	         68.36075490	         70.31554941	        -18.53786892	
          1.95000000	        -30.08439021	          8.36282572	          0.18501091	         -2.06228621	         52.97201802	         -6.83178151	         67.92402365	         71.04538521	        -18.75841159	
          1.97500000	        -30.42260792	          8.74676722	          0.12840812	         -1.86521118	         53.75421488	         -7.05513406	         67.62379864	         71.59570791	        -19.15439891	
          2.00000000	        -30.58128224	          9.09759002	          0.20021476	         -1.66320589	         54.30270478	         -7.20432198	         67.54681748	         71.91490993	        -19.61036314	
